<?xml version="1.0" standalone="no"?>
<!DOCTYPE svg PUBLIC "-//W3C//DTD SVG 20010904//EN"
 "http://www.w3.org/TR/2001/REC-SVG-20010904/DTD/svg10.dtd">
<svg version="1.0" xmlns="http://www.w3.org/2000/svg"
 width="256.000000pt" height="256.000000pt" viewBox="0 0 256.000000 256.000000"
 preserveAspectRatio="xMidYMid meet">
<metadata>
Created by potrace 1.16, written by Peter Selinger 2001-2019
</metadata>
<g transform="translate(0.000000,256.000000) scale(0.100000,-0.100000)"
fill="#000000" stroke="none">
<path d="M1070 2445 c-100 -16 -252 -64 -329 -104 l-54 -28 204 -6 c222 -6
291 -18 391 -68 81 -41 127 -85 160 -154 76 -162 1 -425 -150 -527 l-23 -16
21 -43 c13 -24 23 -45 25 -46 1 -2 22 17 47 40 25 24 67 55 94 68 47 23 59 24
287 27 l237 3 0 -178 0 -178 -21 43 c-25 50 -74 93 -149 130 -47 22 -68 27
-142 27 -77 0 -89 -2 -112 -24 -34 -32 -40 -69 -20 -120 21 -52 117 -133 320
-267 221 -146 264 -199 272 -336 2 -43 7 -78 11 -78 9 0 106 147 134 205 34
70 72 186 92 280 22 100 25 312 6 415 -110 614 -690 1030 -1301 935z m461
-130 c115 -32 186 -65 285 -130 157 -105 280 -247 364 -420 80 -164 95 -236
94 -455 0 -170 -3 -192 -27 -270 -14 -47 -34 -104 -44 -127 l-18 -42 -45 57
c-34 43 -88 85 -222 177 -175 119 -288 207 -288 226 0 14 62 11 114 -7 52 -18
136 -90 136 -116 0 -9 14 -28 31 -42 26 -23 40 -26 100 -26 l69 0 0 280 0 281
-276 -3 c-271 -3 -275 -3 -269 17 32 111 36 144 33 244 -2 90 -7 115 -30 164
-34 73 -114 157 -184 194 -29 15 -54 31 -54 34 0 11 146 -12 231 -36z"/>
<path d="M454 2138 c-254 -241 -379 -570 -346 -911 28 -296 139 -533 339 -728
206 -200 435 -303 723 -324 l95 -7 -56 53 c-106 101 -144 195 -137 333 7 123
59 209 153 252 96 45 195 22 195 -46 0 -65 -46 -111 -126 -128 -47 -9 -74 -53
-74 -120 0 -86 52 -151 160 -200 121 -56 306 -35 400 45 55 48 93 124 93 188
0 111 -73 199 -259 310 -283 170 -510 378 -593 544 -22 43 -61 150 -61 167 0
1 19 6 43 12 132 34 216 153 217 309 0 113 -79 236 -185 289 -47 22 -65 26
-124 22 -38 -2 -76 -10 -85 -17 -14 -12 -16 -69 -16 -578 0 -628 -3 -601 69
-641 23 -13 41 -25 41 -28 0 -2 -101 -4 -225 -4 -124 0 -225 4 -225 8 0 4 14
16 30 25 61 37 60 21 60 639 0 310 -3 573 -6 586 -4 12 -10 22 -15 22 -5 0
-43 -32 -85 -72z m558 -67 c28 -18 57 -48 75 -78 24 -41 28 -58 27 -118 0 -77
-14 -113 -62 -158 -28 -27 -124 -61 -136 -49 -3 3 -6 101 -6 219 l0 213 28 0
c15 0 49 -13 74 -29z m-633 -1080 c-45 -42 -85 -77 -89 -79 -4 -1 -17 28 -28
65 -42 133 -54 213 -54 358 0 119 4 155 26 240 31 119 107 276 173 360 l48 60
3 -464 2 -464 -81 -76z m555 353 c27 -71 183 -249 303 -346 35 -28 63 -55 63
-60 0 -4 -12 -8 -27 -8 -84 0 -221 -109 -269 -214 -46 -102 -49 -273 -5 -372
24 -54 22 -54 -96 -13 -218 76 -401 219 -525 408 -26 40 -48 77 -48 82 0 5
145 9 323 9 177 0 328 4 334 8 11 7 63 125 63 143 0 3 -31 23 -70 43 l-70 37
0 150 c0 135 7 176 24 133z m759 -664 c61 -53 81 -91 74 -146 -9 -88 -85 -143
-206 -151 -117 -8 -247 59 -239 124 2 21 11 29 43 40 90 29 155 113 155 198
l0 46 63 -35 c34 -19 83 -54 110 -76z"/>
</g>
</svg>
